<svg width="64" height="39" viewBox="0 0 64 39" fill="none" xmlns="http://www.w3.org/2000/svg">
<path d="M54.8803 9.4962H48.1202V25.5317H54.8803V9.4962Z" fill="#FF5F00"/>
<path d="M48.5493 17.5145C48.5483 15.9702 48.8134 14.4458 49.3246 13.0567C49.8359 11.6676 50.5798 10.4502 51.5002 9.49676C50.3604 8.31425 48.9917 7.57886 47.5503 7.37465C46.1089 7.17044 44.6531 7.50565 43.3492 8.34197C42.0454 9.17828 40.9461 10.482 40.177 12.104C39.4079 13.726 39 15.6009 39 17.5145C39 19.428 39.4079 21.303 40.177 22.925C40.9461 24.547 42.0454 25.8507 43.3492 26.687C44.6531 27.5233 46.1089 27.8585 47.5503 27.6543C48.9917 27.4501 50.3604 26.7147 51.5002 25.5322C50.5798 24.5788 49.8359 23.3614 49.3246 21.9723C48.8134 20.5832 48.5483 19.0588 48.5493 17.5145Z" fill="#EB001B"/>
<path d="M64 17.5145C64.0001 19.428 63.5923 21.3029 62.8232 22.925C62.0541 24.547 60.9549 25.8507 59.651 26.687C58.3472 27.5233 56.8914 27.8585 55.45 27.6543C54.0087 27.4501 52.6399 26.7147 51.5002 25.5322C52.4198 24.5778 53.1631 23.3602 53.6743 21.9714C54.1854 20.5825 54.451 19.0586 54.451 17.5145C54.451 15.9704 54.1854 14.4465 53.6743 13.0576C53.1631 11.6687 52.4198 10.4512 51.5002 9.49676C52.6399 8.31424 54.0087 7.57885 55.45 7.37465C56.8914 7.17044 58.3472 7.50566 59.651 8.34198C60.9549 9.17831 62.0541 10.482 62.8232 12.104C63.5923 13.726 64.0001 15.601 64 17.5145Z" fill="#F79E1B"/>
<path d="M63.263 23.8335V23.5052H63.3633V23.4383H63.1078V23.5052H63.2082V23.8335H63.263ZM63.7588 23.8335V23.4377H63.6805L63.5905 23.7099L63.5004 23.4377H63.4221V23.8335H63.4774V23.5349L63.5618 23.7923H63.6191L63.7036 23.5343V23.8335H63.7588Z" fill="#F79E1B"/>
<path d="M15.3492 13.4002L13.2781 25.5816H10.773L12.8443 13.4002H15.3492ZM25.8879 21.2659L27.2063 16.6915L27.9651 21.2659H25.8879ZM28.6837 25.5816H31L28.9764 13.4002H26.8398C26.3583 13.4002 25.9523 13.7514 25.7727 14.2931L22.0141 25.5816H24.6448L25.167 23.7623H28.3804L28.6837 25.5816ZM22.1445 21.6048C22.1554 18.3899 18.6119 18.2118 18.6357 16.7753C18.6433 16.3389 18.9743 15.874 19.6978 15.755C20.0565 15.697 21.0463 15.6498 22.1682 16.3003L22.6071 13.7161C22.0045 13.4418 21.229 13.1777 20.264 13.1777C17.7876 13.1777 16.0456 14.8326 16.0317 17.2041C16.0158 18.9579 17.2761 19.9357 18.2236 20.5198C19.2006 21.1168 19.5279 21.4996 19.5231 22.033C19.5164 22.8503 18.7441 23.2122 18.025 23.2259C16.765 23.2505 16.0345 22.7974 15.4524 22.456L14.9977 25.1265C15.584 25.464 16.6641 25.7577 17.7826 25.7728C20.4154 25.7728 22.1367 24.1374 22.1445 21.6048ZM11.7698 13.4002L7.71107 25.5816H5.06355L3.06609 15.86C2.94501 15.2622 2.83939 15.0424 2.47112 14.7898C1.86875 14.3783 0.874377 13.9934 0 13.7539L0.0592362 13.4002H4.32158C4.8645 13.4002 5.35298 13.8547 5.47733 14.6416L6.53246 21.6911L9.13817 13.4002H11.7698Z" fill="#1434CB"/>
</svg>
