<svg width="22" height="34" viewBox="0 0 22 34" fill="none" xmlns="http://www.w3.org/2000/svg">
<path fill-rule="evenodd" clip-rule="evenodd" d="M2 1C1.44772 1 1 1.44772 1 2V32C1 32.5523 1.44772 33 2 33H19.5C20.0523 33 20.5 32.5523 20.5 32V2C20.5 1.44772 20.0523 1 19.5 1H2ZM5 14.5C4.44772 14.5 4 14.0523 4 13.5V5.5C4 4.94772 4.44772 4.5 5 4.5H16.5C17.0523 4.5 17.5 4.94772 17.5 5.5V13.5C17.5 14.0523 17.0523 14.5 16.5 14.5H5Z" fill="#7CA9ED"/>
<path d="M4 19H17.5M17.5 22H4M17.5 25H4M17.5 28H4M17.5 5.5V13.5C17.5 14.0523 17.0523 14.5 16.5 14.5H5C4.44772 14.5 4 14.0523 4 13.5V5.5C4 4.94772 4.44772 4.5 5 4.5H16.5C17.0523 4.5 17.5 4.94772 17.5 5.5ZM20.5 2V32C20.5 32.5523 20.0523 33 19.5 33H2C1.44772 33 1 32.5523 1 32V2C1 1.44772 1.44772 1 2 1H19.5C20.0523 1 20.5 1.44772 20.5 2Z" stroke="#50539A" stroke-width="2" stroke-linecap="round"/>
</svg>
